<?xml version="1.0" standalone="no"?>
<!DOCTYPE svg PUBLIC "-//W3C//DTD SVG 20010904//EN"
 "http://www.w3.org/TR/2001/REC-SVG-20010904/DTD/svg10.dtd">
<svg version="1.0" xmlns="http://www.w3.org/2000/svg"
 width="802.000000pt" height="802.000000pt" viewBox="0 0 802.000000 802.000000"
 preserveAspectRatio="xMidYMid meet">

<g transform="translate(0.000000,802.000000) scale(0.100000,-0.100000)"
fill="#696969" stroke="none">
<path d="M3120 7822 c-25 -8 -72 -26 -105 -40 -47 -20 -78 -26 -145 -27 -94
-1 -122 -12 -239 -92 -35 -24 -69 -43 -76 -43 -25 0 -69 -24 -105 -57 -19 -18
-43 -36 -52 -39 -22 -7 -98 -133 -98 -161 0 -25 -25 -53 -45 -53 -21 0 -42
-38 -50 -90 -8 -46 -24 -79 -60 -117 -11 -12 -20 -32 -20 -44 0 -25 -35 -52
-42 -31 -11 31 -83 -14 -83 -52 0 -7 -26 -26 -57 -41 -140 -66 -203 -112 -203
-149 0 -18 -5 -26 -17 -26 -53 -2 -101 -14 -120 -32 -12 -12 -20 -25 -17 -29
3 -5 52 -6 109 -2 93 5 109 4 162 -17 57 -23 93 -46 144 -91 49 -44 64 -100
31 -118 -19 -10 -96 -8 -156 4 -46 10 -56 -1 -56 -65 0 -37 -6 -51 -33 -80
-40 -44 -122 -110 -135 -110 -10 0 -28 -18 -131 -129 -58 -62 -55 -116 6 -127
19 -4 37 -13 40 -21 6 -15 -22 -88 -45 -115 -45 -54 -43 -136 4 -171 19 -14
23 -15 18 -2 -3 8 -1 15 5 15 7 0 15 -8 18 -17 4 -10 14 -28 24 -40 17 -23 30
-106 33 -211 1 -38 6 -57 19 -66 9 -7 17 -20 17 -28 0 -8 14 -33 31 -54 17
-21 33 -51 36 -66 3 -15 23 -45 45 -65 53 -51 65 -77 82 -172 7 -45 18 -87 24
-94 5 -6 12 -53 14 -104 3 -66 9 -97 20 -110 9 -10 21 -43 26 -73 6 -30 18
-75 26 -99 9 -24 16 -61 16 -82 0 -21 4 -40 9 -43 11 -7 20 -66 24 -157 1 -37
8 -73 15 -81 6 -8 10 -32 8 -54 -3 -30 2 -47 20 -71 15 -19 24 -45 24 -67 0
-22 9 -45 24 -63 24 -28 24 -31 11 -87 -10 -43 -23 -67 -45 -88 -31 -28 -31
-30 -25 -96 10 -110 14 -122 38 -122 16 0 18 -3 9 -12 -19 -19 -14 -55 13 -98
17 -26 30 -38 40 -34 8 4 15 12 15 19 0 7 7 18 15 25 22 19 44 -3 25 -25 -10
-12 -10 -18 1 -31 11 -13 9 -14 -12 -9 -24 6 -25 4 -23 -32 2 -21 1 -31 -2
-21 -7 22 -35 32 -46 16 -11 -16 0 -128 14 -145 26 -32 58 7 58 70 0 25 6 37
29 50 26 15 60 15 62 -2 1 -15 7 -57 9 -66 8 -38 -8 -44 -54 -20 -37 20 -36
20 -36 -20 0 -19 5 -35 10 -35 6 0 8 -10 5 -23 -7 -28 9 -44 50 -49 28 -3 30
-6 27 -39 -2 -30 2 -37 23 -47 19 -9 25 -18 23 -35 -2 -12 -6 -20 -9 -17 -11
10 -39 -23 -39 -45 0 -13 16 -40 35 -61 40 -46 41 -50 15 -66 -25 -16 -25 -33
0 -61 12 -12 23 -32 26 -44 4 -13 12 -23 20 -23 8 0 14 -7 14 -15 0 -8 6 -25
13 -36 10 -17 9 -23 0 -26 -7 -3 -13 -16 -13 -29 0 -19 8 -28 29 -35 27 -9 29
-14 29 -61 0 -41 4 -54 22 -68 17 -13 21 -24 17 -40 -4 -15 1 -32 14 -48 12
-16 19 -40 19 -67 0 -57 35 -133 71 -153 23 -14 31 -28 40 -71 6 -29 9 -65 6
-79 -5 -28 18 -72 38 -72 16 0 25 -23 18 -48 -2 -11 3 -33 14 -48 16 -25 23
-61 24 -134 2 -86 12 -170 21 -170 34 0 49 -83 26 -146 -10 -28 -9 -36 4 -51
34 -39 27 -91 -20 -145 -9 -11 -12 -27 -8 -43 4 -15 0 -37 -10 -56 -8 -17 -13
-37 -10 -45 8 -21 -31 -71 -61 -79 -13 -3 -40 -21 -61 -41 -66 -62 -181 -134
-215 -134 -62 0 -128 -57 -172 -147 -13 -30 -31 -53 -40 -53 -8 0 -15 -4 -15
-8 0 -10 -89 -32 -128 -32 -15 0 -89 -16 -165 -35 -87 -22 -161 -35 -202 -35
-55 0 -74 -5 -123 -32 -60 -34 -139 -49 -282 -52 -44 -1 -75 -7 -93 -19 -14
-9 -39 -17 -55 -17 -16 0 -35 -7 -42 -15 -7 -9 -29 -15 -52 -15 -21 0 -55 -7
-75 -15 -19 -8 -50 -15 -69 -15 -18 0 -36 -5 -39 -10 -6 -9 -48 -30 -141 -70
-22 -10 -53 -30 -69 -44 l-28 -26 3374 0 3374 0 -25 21 c-56 45 -140 99 -154
99 -8 0 -18 5 -21 10 -3 6 -18 10 -33 10 -15 0 -51 9 -80 20 -29 11 -60 20
-70 20 -9 0 -22 10 -27 22 -7 16 -26 26 -70 37 -42 10 -70 24 -95 48 -19 18
-46 36 -60 39 -33 7 -53 15 -123 49 -51 24 -67 27 -113 21 l-54 -6 0 30 c0 28
-2 30 -39 30 -21 0 -43 6 -49 13 -6 7 -27 19 -47 27 -19 7 -35 17 -35 22 0 4
-13 8 -30 8 -16 0 -44 6 -62 14 -18 8 -51 19 -74 25 -23 6 -58 24 -79 41 -21
16 -46 30 -57 30 -10 0 -29 10 -41 23 -30 31 -124 52 -160 36 -39 -18 -40 -37
-7 -87 16 -25 30 -54 30 -64 0 -10 6 -21 14 -24 8 -3 17 -25 20 -48 4 -23 16
-59 26 -79 11 -20 20 -45 20 -55 0 -37 -82 -57 -156 -38 -29 7 -64 9 -84 5
-19 -4 -108 -10 -198 -13 -89 -3 -171 -10 -182 -16 -10 -5 -47 -10 -82 -10
-78 0 -219 -25 -257 -45 -18 -9 -34 -28 -41 -49 -7 -21 -20 -38 -33 -42 -12
-3 -29 -13 -38 -21 -21 -18 -71 -22 -294 -22 -99 0 -216 -1 -260 -1 -44 -1
-125 4 -181 11 -78 9 -106 9 -123 0 -16 -9 -30 -9 -55 -1 -25 8 -58 8 -121 0
-84 -10 -88 -10 -128 13 -23 13 -58 27 -78 31 -21 4 -48 15 -62 26 -14 11 -30
20 -35 20 -17 0 -80 64 -84 85 -3 17 -14 21 -68 27 -91 10 -110 16 -110 34 0
14 -3 14 -15 4 -13 -11 -19 -8 -40 14 -13 14 -31 26 -39 26 -8 0 -24 12 -36
27 -17 22 -23 25 -30 13 -7 -12 -14 -10 -39 14 -16 15 -34 26 -39 22 -5 -3
-17 0 -27 8 -14 10 -16 16 -6 34 11 20 9 22 -19 22 -22 0 -30 -5 -30 -17 0
-12 -5 -8 -16 12 -21 41 -15 107 10 111 17 2 66 45 66 58 0 2 -16 10 -35 16
-34 11 -35 13 -35 62 0 39 3 48 13 40 6 -5 31 -13 55 -17 23 -4 48 -12 55 -19
6 -7 20 -15 30 -19 14 -5 17 -1 17 23 0 23 -5 31 -25 36 -14 3 -30 15 -36 25
-5 10 -15 18 -21 16 -20 -4 -19 22 1 33 23 12 27 40 9 58 -9 9 -9 18 1 39 9
19 9 29 2 31 -24 8 -10 32 17 32 35 0 45 -9 31 -26 -7 -8 -6 -14 2 -19 6 -4
14 -3 18 3 3 5 25 10 48 10 26 1 53 9 71 22 23 17 33 19 55 11 17 -7 27 -18
27 -31 0 -20 3 -21 65 -24 17 -1 20 -7 17 -48 -4 -58 18 -76 62 -52 16 8 34
14 42 14 17 0 34 -32 34 -64 0 -39 25 -56 84 -56 30 0 60 -6 72 -15 10 -8 36
-15 57 -15 42 0 68 -11 98 -41 13 -13 33 -19 65 -19 41 0 45 2 39 20 -5 16 -2
20 14 20 12 0 21 -5 21 -11 0 -7 10 1 22 16 18 23 19 30 9 47 -10 17 -10 23 2
35 12 13 18 12 45 -4 28 -18 30 -21 16 -35 -14 -14 -13 -15 10 -11 14 3 26 9
26 13 0 5 9 12 20 15 11 3 20 13 20 21 0 8 6 14 13 14 8 0 22 9 32 20 19 21
69 27 80 10 8 -12 35 -13 35 -1 0 5 -10 12 -22 15 -23 6 -23 6 -3 22 11 8 21
10 23 5 2 -6 13 -1 25 10 25 23 101 59 126 59 9 0 22 9 29 21 7 11 19 18 27
15 20 -7 38 17 23 32 -9 9 -5 19 17 42 32 34 47 37 66 14 7 -9 22 -14 36 -11
14 2 29 -3 39 -14 10 -11 22 -19 28 -19 18 1 45 46 48 78 1 19 18 48 43 78 41
47 41 47 76 34 31 -11 42 -10 83 5 43 17 71 48 60 66 -2 4 3 12 10 19 11 8 20
8 35 1 28 -15 41 -14 48 7 4 9 18 31 32 49 24 30 26 31 52 17 37 -19 46 -18
54 7 8 24 40 59 55 59 6 0 10 6 11 13 1 24 18 -29 18 -60 1 -41 31 -45 55 -8
16 25 17 49 2 74 -8 13 15 41 35 41 18 0 50 -90 50 -142 0 -10 4 -20 10 -23 5
-4 9 1 9 10 0 19 51 85 66 85 6 0 21 11 34 25 20 21 22 30 14 53 -8 22 -16 28
-49 30 -49 4 -65 17 -63 48 2 25 33 34 40 12 3 -8 25 -12 62 -11 62 1 96 21
96 55 0 23 -27 35 -43 19 -6 -6 -31 -11 -55 -11 -41 0 -43 1 -40 28 3 25 6 27
51 25 52 -1 59 7 25 30 l-23 15 23 31 c17 24 20 35 13 50 -6 10 -8 21 -5 23 2
3 -2 11 -10 17 -8 7 -12 19 -9 27 4 10 -2 14 -20 14 -27 0 -57 23 -57 44 0 19
34 46 57 46 12 0 24 7 27 16 9 22 8 24 -11 24 -37 0 -47 15 -28 44 10 15 15
35 11 49 -3 14 3 38 15 61 20 37 20 38 1 74 -21 41 -23 147 -3 186 6 12 14 37
19 56 5 22 17 39 31 45 12 6 25 22 28 37 3 15 12 33 19 39 8 6 14 21 14 33 0
11 9 34 19 50 15 23 17 34 9 57 -8 24 -16 29 -44 29 -19 0 -34 1 -34 3 0 2 7
25 16 51 12 35 13 51 5 59 -23 23 -12 72 24 113 39 43 41 51 21 79 -18 26 -6
57 34 87 18 13 35 23 38 24 4 0 18 5 32 11 14 6 42 13 62 17 48 9 74 51 56 91
-6 14 -15 25 -21 25 -17 0 -66 -40 -72 -59 -4 -15 -19 -19 -72 -24 -37 -3 -72
-3 -79 0 -23 9 -27 43 -8 64 14 15 15 24 6 43 -11 24 0 46 23 46 20 0 16 58
-5 78 -23 21 -22 21 47 70 39 27 49 27 104 2 52 -23 102 -26 119 -5 9 11 7 19
-14 42 -14 15 -26 38 -26 50 0 16 -10 27 -32 36 -18 8 -42 24 -52 36 -11 11
-25 21 -33 21 -15 0 -18 26 -3 35 18 11 10 25 -14 25 -31 0 -40 14 -24 39 9
15 9 23 -1 35 -8 9 -20 16 -27 16 -17 0 -17 7 -3 51 18 54 57 99 85 99 13 0
24 3 24 8 0 4 12 13 28 19 15 7 41 26 59 42 18 16 46 32 62 36 66 14 99 78 87
172 -18 148 -18 160 -2 192 15 27 15 41 6 85 -8 38 -8 72 -1 117 6 35 8 80 4
101 -3 21 2 88 12 148 17 105 17 113 1 149 -16 34 -16 43 -3 97 10 41 14 99
11 192 -2 100 1 145 12 178 12 37 13 58 4 125 -6 44 -8 100 -4 124 5 35 3 46
-9 51 -26 10 -30 34 -33 174 -2 74 -5 167 -7 205 -2 39 0 75 4 80 5 6 -2 43
-13 83 -20 69 -20 73 -3 92 11 13 16 29 12 47 -6 30 -35 117 -48 145 -5 10 -9
28 -9 41 0 51 -99 201 -151 227 -20 11 -43 30 -53 44 -9 14 -21 26 -26 26 -18
0 -145 63 -153 76 -5 8 -16 10 -35 5 -22 -6 -34 -2 -67 26 -35 30 -43 33 -82
27 -28 -4 -48 -2 -58 6 -8 7 -15 10 -15 8 0 -3 -24 3 -52 12 -37 13 -59 27
-73 49 -15 23 -28 30 -51 31 -17 0 -37 7 -44 15 -9 11 -32 15 -80 15 -73 0
-100 16 -100 59 0 29 27 81 42 81 7 0 23 11 37 24 15 14 49 33 76 44 40 16 50
24 50 43 0 33 -27 35 -115 8 -49 -14 -76 -29 -87 -45 -9 -14 -25 -24 -40 -24
-36 0 -77 -25 -116 -70 -29 -35 -35 -38 -39 -22 -5 17 -19 20 -114 26 -103 7
-284 49 -292 68 -2 5 -14 8 -27 8 -13 0 -52 9 -87 20 -34 11 -79 20 -98 20
-42 0 -106 19 -140 41 -14 9 -49 23 -77 30 -29 7 -53 16 -53 21 0 23 -62 35
-280 58 -111 11 -280 6 -309 -10 -15 -8 -38 -8 -84 0 -85 15 -97 23 -73 49 11
12 30 21 43 21 16 0 23 6 23 20 0 24 -16 24 -80 2z m-60 -114 c0 -10 -4 -18
-9 -18 -13 0 -21 27 -14 46 5 13 7 13 14 2 5 -7 9 -21 9 -30z m-394 -197 c-16
-105 -19 -113 -42 -123 -34 -16 -50 1 -33 33 7 13 11 44 10 68 -2 48 18 72 52
63 16 -4 18 -11 13 -41z m2139 -121 c3 -5 1 -10 -4 -10 -6 0 -11 5 -11 10 0 6
2 10 4 10 3 0 8 -4 11 -10z m-682 -1682 c15 -7 30 -21 33 -31 6 -20 41 -15 60
9 15 19 24 18 24 -5 0 -17 6 -18 43 -14 23 3 47 12 53 19 15 18 29 18 60 -2
19 -13 22 -19 13 -31 -10 -11 -9 -17 4 -30 14 -15 18 -13 47 16 17 17 35 31
39 31 3 0 12 -14 18 -31 11 -27 16 -31 38 -25 22 6 32 1 58 -27 18 -19 49 -42
70 -52 22 -10 44 -29 50 -42 11 -26 18 -28 34 -12 7 7 15 6 25 -5 8 -8 30 -16
49 -18 l34 -3 -3 -68 c-2 -66 -2 -68 19 -57 11 6 28 9 37 5 16 -6 16 -7 0 -19
-26 -19 -29 -72 -3 -62 20 7 29 -32 16 -68 -16 -42 -15 -46 35 -68 26 -11 49
-28 51 -39 3 -10 10 -19 15 -19 5 0 8 -6 5 -12 -6 -18 21 -68 37 -68 8 0 23
-19 35 -42 28 -60 84 -116 118 -120 23 -2 28 -7 25 -28 -1 -13 -8 -28 -15 -32
-9 -6 -9 -8 1 -8 6 0 12 -5 12 -11 0 -6 17 -31 39 -57 21 -26 41 -56 44 -67
17 -60 60 -171 71 -185 7 -8 11 -21 9 -28 -3 -8 0 -25 7 -38 10 -17 10 -27 2
-36 -6 -8 -7 -19 -3 -27 5 -7 3 -25 -5 -40 -14 -27 -5 -62 45 -184 6 -16 11
-33 11 -39 0 -20 -24 -78 -32 -78 -4 0 -8 -8 -8 -19 0 -10 -7 -24 -15 -31 -8
-7 -15 -20 -15 -29 0 -27 -21 -41 -62 -41 -43 0 -50 -15 -13 -32 40 -18 32
-47 -15 -54 -39 -6 -40 -8 -40 -45 0 -22 5 -39 10 -39 20 0 28 -44 13 -67 -9
-13 -18 -21 -22 -19 -11 7 -28 -7 -34 -29 -8 -24 13 -70 31 -70 18 0 30 -23
25 -48 -3 -13 4 -31 16 -44 27 -28 27 -30 -9 -60 -23 -19 -29 -31 -25 -47 5
-15 4 -17 -3 -7 -13 18 -32 5 -32 -22 0 -18 6 -23 28 -22 23 0 27 -4 27 -30 0
-22 -8 -35 -33 -52 l-34 -22 39 -16 c21 -9 48 -17 61 -17 26 -1 30 -18 5 -18
-23 -1 -53 -23 -53 -40 0 -21 31 -50 54 -51 14 0 16 -2 6 -6 -8 -3 -27 -19
-42 -37 -20 -23 -28 -26 -28 -14 0 19 -38 35 -50 21 -4 -4 -5 -36 -3 -70 5
-53 8 -63 24 -63 16 0 19 8 20 48 1 41 2 43 8 17 4 -16 17 -50 29 -74 12 -24
19 -48 16 -52 -7 -12 -44 -11 -44 1 0 6 -9 19 -20 30 l-20 20 0 -55 c0 -48 3
-55 19 -55 11 0 21 4 23 10 2 5 9 6 17 1 11 -7 11 -15 2 -44 -10 -29 -9 -41 6
-71 19 -41 11 -66 -24 -76 -38 -10 -74 -45 -77 -75 -3 -23 3 -33 31 -52 19
-13 39 -21 44 -17 13 7 39 -14 39 -32 0 -8 -7 -14 -15 -14 -9 0 -21 -5 -28
-10 -7 -6 -27 -22 -46 -35 -26 -19 -30 -25 -16 -25 27 0 12 -11 -23 -16 -40
-6 -48 10 -17 30 30 20 32 49 4 79 -20 22 -21 22 -35 2 -10 -14 -14 -39 -11
-85 3 -63 -6 -90 -32 -90 -25 0 -33 -65 -10 -80 16 -11 -3 -48 -27 -54 -29 -8
-31 -22 -4 -38 31 -19 24 -23 -30 -20 -59 5 -83 -9 -74 -43 7 -28 -14 -44 -30
-24 -18 25 -75 44 -89 30 -6 -6 -8 -11 -4 -11 4 0 3 -9 -3 -20 -6 -11 -15 -20
-20 -20 -14 0 -116 -101 -129 -127 -7 -13 -18 -23 -26 -23 -8 0 -15 -5 -15
-10 0 -6 -8 -5 -20 2 -22 14 -39 3 -22 -14 19 -19 15 -25 -37 -42 -26 -8 -63
-29 -81 -46 -18 -16 -41 -30 -53 -30 -11 0 -44 -11 -72 -25 -38 -17 -55 -32
-59 -50 -7 -28 -31 -32 -61 -11 -37 25 -73 28 -92 7 -12 -12 -35 -20 -68 -23
-43 -2 -50 0 -49 15 1 9 -2 17 -7 17 -5 0 -9 -4 -9 -8 0 -5 -23 -16 -52 -26
-46 -15 -53 -15 -68 -1 -12 11 -41 15 -116 15 -104 0 -116 3 -127 34 -6 14
-14 17 -35 13 -65 -13 -67 -13 -70 12 -4 22 -7 23 -60 19 -32 -3 -65 -9 -74
-13 -13 -5 -21 0 -30 20 -11 25 -16 27 -55 22 -24 -2 -46 0 -49 5 -3 5 -18 8
-32 6 -24 -3 -27 1 -33 35 -6 36 -4 38 23 44 40 8 34 38 -7 38 -18 0 -40 10
-57 27 -15 14 -36 29 -47 33 -12 3 -21 14 -21 24 0 15 8 18 45 17 25 -1 49 4
53 11 4 6 20 13 36 15 24 2 34 12 53 50 18 36 31 49 59 58 20 7 40 22 46 36 7
15 23 26 44 30 21 4 36 13 40 26 4 14 9 17 17 9 15 -15 -18 -49 -52 -53 -22
-3 -26 -7 -24 -32 4 -57 65 -66 79 -11 4 18 13 25 30 25 13 0 24 -4 24 -10 0
-20 21 -9 30 15 8 22 16 25 55 25 l45 0 0 48 c0 61 -10 78 -38 63 -30 -16 -40
-14 -64 14 -14 16 -32 25 -52 25 -17 0 -51 7 -76 16 -24 8 -52 13 -62 11 -24
-7 -102 25 -106 43 -15 68 -15 70 6 70 14 0 28 14 43 40 12 22 25 38 27 35 8
-7 62 35 62 48 0 7 -8 17 -17 23 -24 15 -53 68 -45 80 4 5 45 22 92 37 71 22
103 27 195 27 61 0 121 1 135 1 40 2 203 -22 223 -32 9 -6 17 -16 17 -23 0 -8
7 -20 16 -27 14 -11 19 -10 34 9 24 29 58 29 69 -1 5 -13 22 -32 38 -42 15
-10 32 -24 36 -31 4 -7 25 -18 46 -24 25 -6 41 -17 44 -30 3 -11 13 -20 22
-20 13 0 15 6 10 29 -5 25 -2 30 25 41 44 18 56 80 24 125 -12 17 -24 39 -28
51 -7 23 -95 64 -138 64 -38 0 -140 38 -158 59 -15 17 -90 41 -129 41 -11 0
-42 14 -70 31 -40 25 -55 30 -78 23 -15 -4 -41 -9 -58 -9 -16 -1 -63 -7 -103
-14 -94 -14 -146 -6 -167 26 -34 51 -86 87 -71 48 3 -10 -12 -28 -47 -55 -46
-34 -58 -39 -90 -33 -29 4 -38 2 -43 -11 -9 -22 -61 -48 -82 -42 -10 3 -26 19
-35 36 -10 16 -24 30 -31 30 -7 0 -19 11 -26 25 -7 14 -17 25 -22 25 -16 0 -8
25 12 38 26 16 27 62 3 62 -54 -1 -106 -103 -71 -138 18 -18 1 -27 -27 -14
-21 10 -25 19 -25 51 0 45 -17 62 -36 37 -9 -13 -19 -16 -36 -10 -13 4 -53 6
-90 5 -63 -2 -66 -1 -61 18 3 13 14 21 27 21 13 0 17 3 9 8 -6 4 -13 30 -14
57 -3 59 -24 99 -50 92 -10 -3 -23 1 -30 9 -6 8 -29 19 -50 25 -28 9 -41 19
-48 42 -6 16 -19 35 -28 42 -15 11 -15 15 -4 29 7 9 11 17 7 17 -3 1 -10 2
-15 3 -23 3 -33 25 -26 53 5 15 9 30 10 33 0 3 7 15 14 28 11 20 10 25 -4 35
-10 8 -17 32 -20 66 -4 58 -8 67 -25 56 -6 -4 -8 -16 -4 -28 6 -20 6 -20 -10
-4 -10 9 -26 17 -36 17 -25 0 -53 43 -37 59 6 6 21 11 34 11 17 0 23 6 23 21
0 35 37 78 65 75 14 -2 28 -6 32 -9 3 -4 17 -7 29 -7 13 0 26 -4 29 -10 9 -15
45 -12 51 5 4 8 -6 31 -20 49 -14 19 -26 39 -26 45 0 14 47 14 55 1 10 -16 23
-12 30 9 3 10 20 25 38 32 61 25 71 49 37 92 -17 22 -18 26 -4 31 9 3 31 6 50
6 19 0 34 5 34 10 0 6 10 10 23 10 12 0 30 7 40 15 11 7 26 11 35 8 11 -5 14
-2 9 10 -8 22 18 47 51 47 15 0 41 9 57 20 17 11 26 20 21 20 -24 0 50 43 82
47 37 5 37 5 51 -43 8 -27 13 -53 11 -59 -2 -5 -4 -24 -5 -41 -1 -17 -5 -36
-9 -42 -8 -13 10 -52 24 -52 15 0 12 -70 -4 -85 -10 -11 -12 -32 -9 -82 3 -37
8 -71 12 -75 10 -12 51 21 62 49 6 16 5 31 -2 45 -9 17 -6 25 20 52 28 29 31
38 32 101 0 39 0 79 -1 90 -1 11 4 40 11 65 14 51 17 78 23 207 5 95 10 118
27 108 15 -10 10 32 -6 45 -8 7 -15 20 -15 29 0 10 -7 26 -15 37 -8 10 -15 25
-15 33 0 28 -32 51 -72 51 -26 0 -38 4 -38 14 0 10 -16 17 -46 22 -28 4 -48
13 -51 23 -4 9 -26 35 -49 57 -33 31 -49 40 -68 37 -17 -4 -27 1 -35 15 -6 11
-31 34 -56 51 -42 28 -52 31 -160 35 -68 3 -117 1 -120 -4 -7 -12 -55 -14 -55
-2 0 4 -25 22 -54 41 -54 34 -65 61 -25 61 14 0 19 7 19 26 0 21 4 24 23 20
12 -3 16 -3 10 0 -9 4 -10 11 -3 24 15 29 48 35 72 14 19 -18 20 -18 34 1 27
36 18 55 -25 55 -47 0 -71 8 -70 24 0 18 106 96 129 96 15 0 20 5 17 14 -6 15
18 30 33 21 11 -7 51 45 44 56 -3 5 0 18 6 29 12 22 63 28 90 10 9 -6 17 -5
21 2 4 6 31 12 60 13 82 5 145 20 165 39 13 13 28 17 54 13 29 -4 39 0 48 14
7 11 18 19 25 19 6 0 25 11 41 25 30 26 72 42 82 32 3 -3 21 1 39 9 19 8 46
14 60 14 14 0 44 9 67 21 39 20 40 22 35 60 l-5 39 39 0 c36 0 40 -3 46 -30 8
-41 23 -38 60 11 27 34 39 42 70 44 20 1 39 7 40 12 10 30 32 41 90 46 48 5
62 3 67 -8 7 -20 44 -18 81 5 37 23 44 23 78 8z m-1460 -1167 c22 -5 39 -5 43
0 3 5 37 8 75 7 67 -3 85 -10 54 -22 -8 -3 -15 -15 -15 -26 0 -40 -35 -60
-103 -60 -34 0 -93 -1 -131 -2 -58 -3 -73 0 -88 16 -26 29 -23 38 24 69 44 28
77 32 141 18z m-3 -335 c0 -24 -12 -46 -21 -40 -15 9 -10 54 6 54 8 0 15 -6
15 -14z m310 -60 c0 -14 -41 -46 -60 -46 -18 0 -11 28 12 44 28 20 48 20 48 2z
m245 -126 c3 -5 1 -10 -4 -10 -6 0 -11 5 -11 10 0 6 2 10 4 10 3 0 8 -4 11
-10z m2225 -840 c0 -21 -15 -27 -25 -10 -7 12 2 30 16 30 5 0 9 -9 9 -20z
m-63 -276 c-3 -3 -12 -4 -19 -1 -8 3 -5 6 6 6 11 1 17 -2 13 -5z m103 -104 c0
-5 -6 -10 -14 -10 -8 0 -18 5 -21 10 -3 6 3 10 14 10 12 0 21 -4 21 -10z
m-2442 -53 c4 -22 -24 -33 -43 -17 -12 10 -13 16 -4 27 16 18 43 13 47 -10z
m-238 -12 c0 -8 -7 -15 -15 -15 -26 0 -18 20 13 29 1 1 2 -6 2 -14z m2588 -22
c-3 -29 -23 -39 -47 -24 -22 14 -4 51 25 51 22 0 25 -4 22 -27z m-88 -278 c0
-16 -27 -28 -35 -15 -4 6 -1 10 4 10 6 0 11 7 11 16 0 8 5 12 10 9 6 -3 10
-12 10 -20z m-2096 -110 c-4 -8 -8 -15 -10 -15 -2 0 -4 7 -4 15 0 8 4 15 10
15 5 0 7 -7 4 -15z m1986 -129 c0 -3 -4 -8 -10 -11 -5 -3 -10 -1 -10 4 0 6 5
11 10 11 6 0 10 -2 10 -4z m-1692 -40 c6 -30 -12 -39 -62 -32 -35 6 -46 12
-46 25 0 27 10 32 60 29 34 -2 46 -7 48 -22z m2022 -235 c0 -12 -20 -25 -27
-18 -7 7 6 27 18 27 5 0 9 -4 9 -9z m-150 -366 c10 -12 10 -15 -4 -15 -9 0
-16 7 -16 15 0 8 2 15 4 15 2 0 9 -7 16 -15z m-70 -59 c0 -3 -4 -8 -10 -11 -5
-3 -10 -1 -10 4 0 6 5 11 10 11 6 0 10 -2 10 -4z m-490 -205 c0 -11 -26 -22
-34 -14 -12 12 -5 23 14 23 11 0 20 -4 20 -9z m-124 -123 c-3 -13 -6 -29 -6
-35 0 -7 -4 -13 -9 -13 -5 0 -11 6 -14 13 -6 17 10 57 24 57 7 0 9 -9 5 -22z
m-155 -21 c-1 -12 -15 -9 -19 4 -3 6 1 10 8 8 6 -3 11 -8 11 -12z m-108 -81
c25 -20 21 -36 -10 -36 -16 0 -38 -3 -50 -6 -19 -5 -21 -3 -18 22 2 16 4 30 4
32 3 8 59 -1 74 -12z"/>
<path d="M4325 4958 c-38 -5 -106 -10 -150 -13 -126 -6 -135 -8 -155 -35 -11
-14 -20 -40 -20 -57 0 -18 -5 -33 -11 -33 -6 0 -17 -6 -25 -14 -7 -8 -19 -16
-24 -18 -6 -2 -13 -16 -14 -31 -4 -38 -15 -46 -32 -23 -16 23 -16 24 -19 -33
-3 -45 -16 -61 -44 -56 -9 2 -22 4 -29 4 -7 1 -10 6 -7 11 3 6 3 15 0 20 -11
18 -45 -9 -45 -36 0 -14 -5 -34 -10 -45 -8 -15 -7 -19 5 -19 9 0 15 -9 15 -25
0 -23 31 -51 43 -38 4 3 20 0 36 -7 21 -8 31 -20 33 -38 3 -23 8 -27 40 -30
30 -3 38 -8 46 -30 7 -22 4 -38 -20 -85 -33 -63 -32 -82 7 -97 29 -11 61 1 83
31 11 16 17 17 40 7 15 -7 42 -25 60 -40 18 -15 40 -28 48 -28 8 0 20 -13 25
-29 11 -32 39 -50 39 -26 0 8 6 15 13 16 6 0 51 2 100 4 48 1 93 8 101 14 7 6
20 9 27 7 8 -2 57 -7 111 -11 94 -6 97 -6 122 20 l26 26 31 -31 c43 -42 64
-37 64 17 0 23 2 43 5 45 33 22 73 38 95 38 41 0 103 21 109 37 9 22 -10 55
-62 111 -33 35 -57 52 -73 52 -13 0 -44 14 -69 30 -25 16 -53 30 -63 30 -10 0
-27 5 -38 10 -11 6 -47 12 -82 14 -34 2 -105 8 -157 14 -52 6 -125 12 -162 12
-57 0 -69 3 -78 20 -11 21 -40 28 -40 10 0 -16 -37 -11 -44 6 -7 19 -1 30 40
76 27 31 39 36 110 47 95 15 198 47 214 66 18 22 59 27 83 10 l21 -15 -24 0
c-16 0 -21 -3 -14 -10 5 -5 40 -10 77 -11 l67 -2 0 -30 c0 -26 2 -28 16 -16
14 11 18 11 28 -3 15 -20 93 -49 112 -41 8 3 17 -4 22 -17 7 -18 10 -20 20 -7
14 16 5 137 -9 137 -5 0 -9 9 -9 20 0 11 -5 20 -11 20 -5 0 -17 16 -24 35 -21
49 -46 59 -162 62 -102 2 -103 2 -137 -27 -43 -38 -61 -38 -75 0 -12 36 -35
47 -71 33 -15 -6 -34 -7 -41 -4 -8 4 -45 4 -84 -1z m-55 -555 c17 -29 20 -44
13 -68 -7 -25 -15 -31 -42 -33 -37 -4 -99 22 -108 44 -9 25 15 64 50 79 49 22
63 18 87 -22z m366 -44 c8 -13 -16 -31 -33 -24 -7 2 -15 -5 -18 -16 -8 -24
-25 -25 -26 -1 -2 32 2 47 18 59 16 13 45 4 59 -18z"/>
<path d="M3130 4020 c-13 -8 -12 -10 3 -10 9 0 17 5 17 10 0 12 -1 12 -20 0z"/>
<path d="M2694 3734 c3 -9 6 -18 6 -20 0 -3 5 -2 10 1 16 10 12 35 -6 35 -11
0 -14 -5 -10 -16z"/>
<path d="M3725 3561 c-22 -4 -73 -23 -113 -43 -43 -22 -97 -40 -130 -44 -55
-7 -56 -6 -86 29 -30 35 -33 36 -111 39 -76 3 -80 2 -83 -19 -2 -13 -9 -23
-17 -23 -25 0 -56 -116 -48 -184 5 -40 11 -52 34 -65 16 -9 29 -19 29 -23 0
-5 5 -8 12 -8 7 0 23 -11 37 -24 43 -39 65 -41 94 -6 14 16 33 30 41 30 9 0
18 11 22 25 9 35 33 46 63 30 30 -15 58 -9 72 17 8 15 17 17 43 12 37 -6 76 9
76 30 0 7 9 21 19 30 16 15 30 17 85 11 68 -8 87 -18 67 -38 -16 -16 -13 -34
7 -42 37 -15 136 -24 154 -14 18 10 18 11 1 41 -10 17 -27 37 -39 44 -20 14
-20 16 -6 60 13 41 13 46 -3 64 -10 11 -27 22 -39 26 -11 4 -32 15 -46 24 -30
22 -80 29 -135 21z"/>
<path d="M5237 3053 c-4 -3 -7 -15 -7 -25 0 -19 34 -26 44 -9 7 11 -28 43 -37
34z"/>
<path d="M2905 3020 c3 -5 8 -10 11 -10 2 0 4 5 4 10 0 6 -5 10 -11 10 -5 0
-7 -4 -4 -10z"/>
<path d="M5160 2572 c0 -5 7 -17 15 -28 13 -16 16 -17 25 -4 17 25 11 40 -15
40 -14 0 -25 -4 -25 -8z"/>
<path d="M3461 2492 c-11 -21 2 -48 18 -38 14 9 15 56 1 56 -5 0 -14 -8 -19
-18z"/>
<path d="M3512 2307 c-9 -10 -6 -17 8 -30 27 -23 30 -22 30 13 0 32 -19 40
-38 17z"/>
<path d="M3625 2290 c-11 -18 6 -50 30 -56 13 -3 26 -13 28 -22 2 -11 8 -4 14
18 8 28 7 39 -5 53 -16 19 -57 23 -67 7z"/>
<path d="M3716 2243 c-19 -19 -3 -50 61 -116 22 -23 28 -25 35 -13 13 24 -1
62 -28 76 -13 8 -24 19 -24 26 0 15 -34 36 -44 27z"/>
<path d="M5005 2199 c-4 -6 -5 -13 -2 -16 7 -7 27 6 27 18 0 12 -17 12 -25 -2z"/>
<path d="M4926 2124 c-8 -21 -1 -31 35 -50 39 -20 73 -11 59 17 -10 18 -59 49
-78 49 -6 0 -13 -7 -16 -16z"/>
<path d="M3328 1783 c-28 -7 -36 -63 -8 -63 7 0 34 61 28 65 -2 1 -11 0 -20
-2z"/>
<path d="M3397 1665 c-7 -16 8 -29 23 -20 15 9 12 35 -4 35 -8 0 -16 -7 -19
-15z"/>
<path d="M3835 1569 c-4 -6 -5 -13 -2 -16 7 -7 27 6 27 18 0 12 -17 12 -25 -2z"/>
<path d="M6011 4083 c-76 -37 -58 -86 31 -86 29 0 62 2 73 4 15 3 21 -2 24
-21 3 -23 16 -39 33 -40 4 0 -4 25 -16 56 -21 52 -47 78 -97 96 -9 3 -30 -1
-48 -9z"/>
<path d="M5822 3893 c2 -22 8 -27 23 -25 46 8 45 52 0 52 -23 0 -26 -4 -23
-27z"/>
<path d="M5920 3475 c0 -18 19 -40 26 -32 4 4 0 15 -9 24 -9 10 -17 13 -17 8z"/>
<path d="M5970 3180 c0 -5 7 -10 15 -10 8 0 15 5 15 10 0 6 -7 10 -15 10 -8 0
-15 -4 -15 -10z"/>
<path d="M5780 2754 c0 -8 5 -12 10 -9 6 3 10 10 10 16 0 5 -4 9 -10 9 -5 0
-10 -7 -10 -16z"/>
<path d="M5645 1960 c-18 -20 -17 -20 8 -20 20 0 27 5 27 20 0 11 -4 20 -8 20
-5 0 -17 -9 -27 -20z"/>
<path d="M5614 1755 c-3 -14 -3 -33 1 -42 7 -17 8 -16 15 2 12 28 12 65 0 65
-5 0 -12 -11 -16 -25z"/>
<path d="M5760 1674 c0 -8 5 -12 10 -9 6 4 8 11 5 16 -9 14 -15 11 -15 -7z"/>
<path d="M5596 1513 c-7 -23 2 -53 15 -53 11 0 11 41 0 59 -7 11 -10 10 -15
-6z"/>
<path d="M5622 1408 c-14 -14 -16 -58 -4 -58 5 0 17 9 27 20 16 18 17 22 4 35
-12 12 -17 13 -27 3z"/>
<path d="M5481 1294 c-23 -30 -28 -49 -8 -38 46 28 66 48 55 56 -20 12 -25 10
-47 -18z"/>
<path d="M4560 1020 c0 -5 5 -10 10 -10 6 0 10 5 10 10 0 6 -4 10 -10 10 -5 0
-10 -4 -10 -10z"/>
</g>
</svg>
